<svg xmlns="http://www.w3.org/2000/svg" viewBox="0 0 24 24" size="24" class="css-hfx21e e1ez7he82"><path fill="var( --primary-text-color)" fill-rule="evenodd" clip-rule="evenodd" d="M3 5.4999C3 4.89239 3.49249 4.3999 4.1 4.3999H19.9C20.5075 4.3999 21 4.89239 21 5.4999C21 6.10742 20.5075 6.5999 19.9 6.5999H4.1C3.49249 6.5999 3 6.10742 3 5.4999ZM3 11.9999C3 11.3924 3.49249 10.8999 4.1 10.8999H19.9C20.5075 10.8999 21 11.3924 21 11.9999C21 12.6074 20.5075 13.0999 19.9 13.0999H4.1C3.49249 13.0999 3 12.6074 3 11.9999ZM4.1 17.3999C3.49249 17.3999 3 17.8924 3 18.4999C3 19.1074 3.49249 19.5999 4.1 19.5999H19.9C20.5075 19.5999 21 19.1074 21 18.4999C21 17.8924 20.5075 17.3999 19.9 17.3999H4.1Z"></path></svg>