<svg viewBox="0 0 24 24"  xmlns="http://www.w3.org/2000/svg"  size="20" class="css-1ws418l e1ez7he82"><path fill="#fff" fill-rule="evenodd" clip-rule="evenodd" d="M5.98388 19.6225C5.49573 20.1107 4.70427 20.1107 4.21612 19.6225C3.72797 19.1343 3.72797 18.3429 4.21612 17.8547L10.0436 12.0272L4.21609 6.19956C3.72794 5.7114 3.72794 4.91994 4.21609 4.43178C4.70424 3.94362 5.49569 3.94362 5.98385 4.43178L11.8114 10.2594L18.0046 4.06607C18.4928 3.57791 19.2842 3.57791 19.7724 4.06607C20.2605 4.55423 20.2605 5.34569 19.7724 5.83385L13.5791 12.0272L19.7724 18.2204C20.2605 18.7086 20.2605 19.5001 19.7724 19.9882C19.2842 20.4764 18.4928 20.4764 18.0046 19.9882L11.8114 13.7949L5.98388 19.6225Z"></path></svg>