<svg viewBox="0 0 24 24" xmlns="http://www.w3.org/2000/svg" size="18" class="css-1lhu3hv e1ez7he82"><path fill="#FFFFFF" d="M7 15c1.306 0 2.418.835 2.83 2H21c.552 0 1 .448 1 1s-.448 1-1 1H9.829C9.417 20.167 8.306 21 7 21c-1.306 0-2.417-.834-2.829-2H3c-.552 0-1-.448-1-1s.448-1 1-1h1.17c.412-1.165 1.524-2 2.83-2zm0 2c-.552 0-1 .448-1 1s.448 1 1 1 1-.448 1-1-.448-1-1-1zm10-8c1.306 0 2.418.835 2.83 2H21c.552 0 1 .448 1 1s-.448 1-1 1h-1.171c-.412 1.166-1.523 2-2.829 2-1.306 0-2.417-.834-2.829-2H3c-.552 0-1-.448-1-1s.448-1 1-1h11.17c.412-1.165 1.524-2 2.83-2zm0 2c-.552 0-1 .448-1 1s.448 1 1 1 1-.448 1-1-.448-1-1-1zM7 3c1.306 0 2.418.835 2.83 2H21c.552 0 1 .448 1 1s-.448 1-1 1H9.829C9.417 8.167 8.306 9 7 9c-1.306 0-2.417-.834-2.829-2H3c-.552 0-1-.448-1-1s.448-1 1-1h1.17C4.583 3.835 5.695 3 7 3zm0 2c-.552 0-1 .448-1 1s.448 1 1 1 1-.448 1-1-.448-1-1-1z"></path></svg>